<svg width="24" height="24" viewBox="0 0 24 24" fill="none" xmlns="http://www.w3.org/2000/svg">
<path d="M10.5647 10.9392C9.97875 11.5252 9.97875 12.4748 10.5647 13.0603C11.1502 13.6462 12.1003 13.6462 12.6858 13.0603C13.2717 12.4744 13.2717 11.5247 12.6858 10.9392C12.0998 10.3538 11.1502 10.3538 10.5647 10.9392ZM11.625 0.375C5.20453 0.375 0 5.57953 0 12C0 18.4205 5.20453 23.625 11.625 23.625C18.0455 23.625 23.25 18.4205 23.25 12C23.25 5.57953 18.0455 0.375 11.625 0.375ZM17.5378 7.31484L14.4455 14.0812C14.2959 14.4085 14.0335 14.6709 13.7062 14.8205L6.94031 17.9128C6.15984 18.2695 5.35547 17.4652 5.71219 16.6847L8.805 9.91828C8.95457 9.59105 9.21699 9.32864 9.54422 9.17906L16.3102 6.08672C17.0906 5.73047 17.8945 6.53438 17.5378 7.31484Z" fill="#344052"/>
</svg>
