<svg width="20" height="24" viewBox="0 0 20 24" fill="none" xmlns="http://www.w3.org/2000/svg">
<path d="M9.74531 0.712567C9.78281 0.93288 10.5 5.14225 10.5 6.75007C10.5 9.20163 9.19688 10.9501 7.27031 11.6532L7.875 22.8141C7.90781 23.4563 7.39687 24.0001 6.75 24.0001H3.75C3.10781 24.0001 2.59219 23.461 2.625 22.8141L3.22969 11.6532C1.29844 10.9501 0 9.19694 0 6.75007C0 5.13757 0.717188 0.93288 0.754688 0.712567C0.904688 -0.238995 2.87812 -0.253058 3 0.764129V7.38288C3.06094 7.54225 3.70781 7.53288 3.75 7.38288C3.81562 6.19694 4.12031 0.85788 4.125 0.736004C4.27969 -0.238995 6.22031 -0.238995 6.37031 0.736004C6.37969 0.862567 6.67969 6.19694 6.74531 7.38288C6.7875 7.53288 7.43906 7.54225 7.49531 7.38288V0.764129C7.61719 -0.248371 9.59531 -0.238995 9.74531 0.712567ZM15.3328 14.1048L14.6297 22.7813C14.5734 23.4376 15.0938 24.0001 15.75 24.0001H18.375C18.9984 24.0001 19.5 23.4985 19.5 22.8751V1.12507C19.5 0.506317 18.9984 6.69963e-05 18.375 6.69963e-05C14.5078 6.69963e-05 7.99688 8.36725 15.3328 14.1048Z" fill="#344052"/>
</svg>
