<svg width="24" height="24" viewBox="0 0 24 24" fill="none" xmlns="http://www.w3.org/2000/svg">
<path d="M12.5 12C15.8141 12 18.5 9.31406 18.5 6C18.5 2.68594 15.8141 0 12.5 0C9.18594 0 6.5 2.68594 6.5 6C6.5 9.31406 9.18594 12 12.5 12ZM16.7 13.5H15.9172C14.8766 13.9781 13.7188 14.25 12.5 14.25C11.2812 14.25 10.1281 13.9781 9.08281 13.5H8.3C4.82187 13.5 2 16.3219 2 19.8V21.75C2 22.9922 3.00781 24 4.25 24H20.75C21.9922 24 23 22.9922 23 21.75V19.8C23 16.3219 20.1781 13.5 16.7 13.5Z" fill="#344052"/>
</svg>
