<svg width="15" height="16" viewBox="0 0 15 16" fill="none" xmlns="http://www.w3.org/2000/svg">
<path d="M12.8333 7H12.0833V4.75C12.0833 2.13125 9.95206 0 7.33331 0C4.71456 0 2.58331 2.13125 2.58331 4.75V7H1.83331C1.00519 7 0.333313 7.67188 0.333313 8.5V14.5C0.333313 15.3281 1.00519 16 1.83331 16H12.8333C13.6614 16 14.3333 15.3281 14.3333 14.5V8.5C14.3333 7.67188 13.6614 7 12.8333 7ZM9.58331 7H5.08331V4.75C5.08331 3.50938 6.09269 2.5 7.33331 2.5C8.57394 2.5 9.58331 3.50938 9.58331 4.75V7Z" fill="#344052"/>
</svg>
